<svg id="Layer_1" data-name="Layer 1" xmlns="http://www.w3.org/2000/svg" viewBox="0 0 325.9 155.89"><defs><style>.cls-1{fill:#333;}</style></defs><title>logo</title><path class="cls-1" d="M602.63,241.49a41.58,41.58,0,1,1,9.6-58A41.63,41.63,0,0,1,602.63,241.49Zm-2.57-3.59a37.16,37.16,0,1,0-51.85-8.58A37.21,37.21,0,0,0,600.06,237.89Z" transform="translate(-377.12 -93.36)"/><path class="cls-1" d="M487.36,239.27a41.58,41.58,0,1,1,9.6-58A41.63,41.63,0,0,1,487.36,239.27Zm-2.57-3.59a37.16,37.16,0,1,0-51.85-8.58A37.21,37.21,0,0,0,484.79,235.68Z" transform="translate(-377.12 -93.36)"/><path class="cls-1" d="M530.33,170.53l.81,3.66-67,28.26-2-4.43,62.52-26.32A8.74,8.74,0,0,0,530.33,170.53Z" transform="translate(-377.12 -93.36)"/><path class="cls-1" d="M526,165.76c.05,0,.12.06.07.09a.06.06,0,1,1-.07-.09Z" transform="translate(-377.12 -93.36)"/><path class="cls-1" d="M533.65,162.17a8.79,8.79,0,0,0-4.51-5.17l2.72-3.29,54.89,52.81L583.37,210Z" transform="translate(-377.12 -93.36)"/><path class="cls-1" d="M529.32,168.6a5.79,5.79,0,1,1,1.34-8.08A5.8,5.8,0,0,1,529.32,168.6ZM526,163.92s0-.09,0-.06a0,0,0,1,0,0,.06Z" transform="translate(-377.12 -93.36)"/><path class="cls-1" d="M403.91,181.81h-4.6l-11.68-31.05h-.15q-.81,5.61-1.88,10.61l-4.37,20.44h-4.11L385,144.68h4.57l11.65,31h.15q.76-5.69,1.83-10.28l4.42-20.69h4.16Z" transform="translate(-377.12 -93.36)"/><path class="cls-1" d="M417.65,150.56a9.71,9.71,0,0,1-7.34-2.77,10.59,10.59,0,0,1-2.67-7.67,22.85,22.85,0,0,1,1.89-9.15,16.94,16.94,0,0,1,5-6.82,10.93,10.93,0,0,1,6.88-2.44q3.88,0,5.84,1.69a5.89,5.89,0,0,1,2,4.71,8,8,0,0,1-4.21,7.17q-4.22,2.6-12.06,2.6h-.84l-.1,2a7.86,7.86,0,0,0,1.56,5.19,6,6,0,0,0,4.84,1.87,12.56,12.56,0,0,0,3.29-.46,25.18,25.18,0,0,0,4.2-1.68v3.71a23,23,0,0,1-4.21,1.56A17.11,17.11,0,0,1,417.65,150.56Z" transform="translate(-377.12 -93.36)"/><path class="cls-1" d="M433,139h-4.27l5.94-27.83H439Zm2.87-34.94a3.34,3.34,0,0,1,.81-2.32,2.71,2.71,0,0,1,2.11-.9,2,2,0,0,1,2.23,2.29,3.44,3.44,0,0,1-.85,2.36,2.56,2.56,0,0,1-2,1,2.34,2.34,0,0,1-1.68-.62A2.31,2.31,0,0,1,435.91,104.09Z" transform="translate(-377.12 -93.36)"/><path class="cls-1" d="M460.39,125.76l-.63,2.72-5.36.61a7.14,7.14,0,0,1,1,4,10.3,10.3,0,0,1-3,7.73,10.85,10.85,0,0,1-7.91,2.88,8.49,8.49,0,0,1-2.13-.2q-3.53,1.35-3.53,3.33a1.35,1.35,0,0,0,.84,1.38,10.13,10.13,0,0,0,2.44.55l3,.36q4.6.56,6.67,2.23a6,6,0,0,1,2.07,4.93,8.29,8.29,0,0,1-3.71,7.24q-3.71,2.56-10.44,2.56a13.77,13.77,0,0,1-7.72-1.87,6,6,0,0,1-2.79-5.27,6.54,6.54,0,0,1,1.83-4.62A14.24,14.24,0,0,1,437,151a3.31,3.31,0,0,1-2-3.07,4,4,0,0,1,1.29-3,13.35,13.35,0,0,1,3.61-2.35,6.68,6.68,0,0,1-3.63-6.09,11.16,11.16,0,0,1,3-8.07,10.3,10.3,0,0,1,7.76-3.15,15.31,15.31,0,0,1,3.91.51Zm-27,32.78a3.58,3.58,0,0,0,1.65,3.1,8.62,8.62,0,0,0,4.9,1.14,13.7,13.7,0,0,0,7.22-1.61,5.08,5.08,0,0,0,2.6-4.56,2.85,2.85,0,0,0-1.37-2.49,11,11,0,0,0-4.67-1.27l-4-.41a9.16,9.16,0,0,0-4.67,2.23A5.22,5.22,0,0,0,433.34,158.54Z" transform="translate(-377.12 -93.36)"/><path class="cls-1" d="M471.74,152.07l3.76-17.57a20.87,20.87,0,0,0,.46-3.43q0-3.76-3.73-3.76a7.61,7.61,0,0,0-4.41,1.5,13.17,13.17,0,0,0-3.78,4.35,23.36,23.36,0,0,0-2.48,6.89l-2.56,12h-4.27l8.38-39.51h4.27q-.46,2.08-.88,4t-.86,4q-.44,2-1,4.23t-1.21,4.8h.28a16.92,16.92,0,0,1,4.71-4.47,9.57,9.57,0,0,1,4.86-1.35,6.92,6.92,0,0,1,5.14,1.83,7,7,0,0,1,1.82,5.18,20.61,20.61,0,0,1-.58,4.21q-1,4.9-3.68,17.06Z" transform="translate(-377.12 -93.36)"/><path class="cls-1" d="M496,145.29a7.41,7.41,0,0,1-4.33-1.29,7.92,7.92,0,0,1-2.81-3.53h-.25l-1.78,4.32H483.7l8.38-39.51h4.27q-1.29,6.15-2,9.41t-1.92,7.63h.23a18.52,18.52,0,0,1,4.66-4.41,9,9,0,0,1,4.74-1.41,6.75,6.75,0,0,1,5.59,2.51,10.79,10.79,0,0,1,2,6.91,27,27,0,0,1-1.74,9.81,16.44,16.44,0,0,1-4.85,7A10.84,10.84,0,0,1,496,145.29ZM500.77,120a7.35,7.35,0,0,0-5,2.41,17.2,17.2,0,0,0-4,6.07A19.73,19.73,0,0,0,490.3,136a6,6,0,0,0,1.41,4.28,5.35,5.35,0,0,0,4.08,1.49,6.71,6.71,0,0,0,4.68-2.06,14.43,14.43,0,0,0,3.49-5.85,24.37,24.37,0,0,0,1.32-8.06Q505.28,120,500.77,120Z" transform="translate(-377.12 -93.36)"/><path class="cls-1" d="M548,93.36a10.16,10.16,0,0,1,7.62,2.86,10.76,10.76,0,0,1,2.79,7.86,22.52,22.52,0,0,1-1.83,9,15.59,15.59,0,0,1-5,6.55,11.57,11.57,0,0,1-7.06,2.31,10.12,10.12,0,0,1-7.64-2.87,10.83,10.83,0,0,1-2.77-7.85,22.48,22.48,0,0,1,1.85-9.08,15.39,15.39,0,0,1,5-6.53A11.66,11.66,0,0,1,548,93.36Z" transform="translate(-377.12 -93.36)"/><path class="cls-1" d="M588.56,120.19a11.59,11.59,0,0,1,3,.36l-.91,3.81A11.18,11.18,0,0,0,588,124a7.05,7.05,0,0,0-4.33,1.52,13.33,13.33,0,0,0-3.53,4.23,21.5,21.5,0,0,0-2.22,6l-2.72,12.75H571l5.94-27.83h3.53l-.56,5.15h.25a25,25,0,0,1,3-3.47,9.57,9.57,0,0,1,2.5-1.62A7.18,7.18,0,0,1,588.56,120.19Z" transform="translate(-377.12 -93.36)"/><path class="cls-1" d="M612.92,137l3.76-17.57a20.87,20.87,0,0,0,.46-3.43q0-3.76-3.73-3.76a7.61,7.61,0,0,0-4.41,1.5,13.17,13.17,0,0,0-3.78,4.35,23.36,23.36,0,0,0-2.48,6.89l-2.56,12h-4.27l8.38-39.51h4.27q-.46,2.08-.88,4t-.86,4q-.45,2-1,4.23t-1.21,4.8h.28a16.92,16.92,0,0,1,4.71-4.47,9.56,9.56,0,0,1,4.86-1.35,6.93,6.93,0,0,1,5.14,1.83,7,7,0,0,1,1.82,5.18,20.68,20.68,0,0,1-.58,4.21q-1,4.9-3.68,17.06Z" transform="translate(-377.12 -93.36)"/><path class="cls-1" d="M635.29,113a10.16,10.16,0,0,1,7.62,2.86,10.76,10.76,0,0,1,2.79,7.86,22.52,22.52,0,0,1-1.83,9,15.59,15.59,0,0,1-5,6.55,11.57,11.57,0,0,1-7.06,2.31,10.12,10.12,0,0,1-7.64-2.87,10.83,10.83,0,0,1-2.77-7.85,22.48,22.48,0,0,1,1.85-9.08,15.39,15.39,0,0,1,5-6.53A11.66,11.66,0,0,1,635.29,113Zm6,10.13a6.94,6.94,0,0,0-1.59-4.74,5.42,5.42,0,0,0-4.3-1.82,7.43,7.43,0,0,0-5,1.88,12.1,12.1,0,0,0-3.4,5.22,21.74,21.74,0,0,0-1.21,7.43,7.49,7.49,0,0,0,1.61,5.14,5.87,5.87,0,0,0,4.63,1.82,7,7,0,0,0,4.75-1.85,12.1,12.1,0,0,0,3.29-5.27A23.84,23.84,0,0,0,641.28,123.11Z" transform="translate(-377.12 -93.36)"/><path class="cls-1" d="M662,107.9a10.16,10.16,0,0,1,7.62,2.86,10.76,10.76,0,0,1,2.79,7.86,22.52,22.52,0,0,1-1.83,9,15.59,15.59,0,0,1-5,6.55,11.57,11.57,0,0,1-7.06,2.31,10.12,10.12,0,0,1-7.64-2.87,10.83,10.83,0,0,1-2.77-7.85,22.48,22.48,0,0,1,1.85-9.08,15.39,15.39,0,0,1,5-6.53A11.66,11.66,0,0,1,662,107.9ZM668,118a6.94,6.94,0,0,0-1.59-4.74,5.42,5.42,0,0,0-4.3-1.82,7.43,7.43,0,0,0-5,1.88,12.1,12.1,0,0,0-3.4,5.22,21.74,21.74,0,0,0-1.21,7.43,7.49,7.49,0,0,0,1.61,5.14,5.87,5.87,0,0,0,4.63,1.82,7,7,0,0,0,4.75-1.85,12.1,12.1,0,0,0,3.29-5.27A23.84,23.84,0,0,0,668,118Z" transform="translate(-377.12 -93.36)"/><path class="cls-1" d="M688.29,106.12q4.93,0,7.13,4.82h.25a58.64,58.64,0,0,1,1.14-7l2-9.09H703l-8.38,39.51h-3.53l.56-5.31h-.2a19.06,19.06,0,0,1-4.8,4.49,9,9,0,0,1-4.62,1.32,6.65,6.65,0,0,1-5.51-2.49,10.82,10.82,0,0,1-2-6.91,26.31,26.31,0,0,1,1.83-10,16.6,16.6,0,0,1,4.94-7A11,11,0,0,1,688.29,106.12Zm-4.82,25.26A7.39,7.39,0,0,0,688.4,129a16.67,16.67,0,0,0,4-6.07,20,20,0,0,0,1.49-7.53,6.08,6.08,0,0,0-1.37-4.29,5.18,5.18,0,0,0-4-1.47,6.79,6.79,0,0,0-4.76,2.09,14.73,14.73,0,0,0-3.53,5.89,23.92,23.92,0,0,0-1.33,8Q678.92,131.39,683.47,131.39Z" transform="translate(-377.12 -93.36)"/><path class="cls-1" d="M438.47,199.37h5.33a10.28,10.28,0,0,1,5.29,1,3.61,3.61,0,0,1,1.65,3.3,4.16,4.16,0,0,1-.72,2.52,2.88,2.88,0,0,1-1.92,1.18v.12a3.77,3.77,0,0,1,2.35,1.36,4.42,4.42,0,0,1,.72,2.65,4.36,4.36,0,0,1-1.69,3.66,7.32,7.32,0,0,1-4.6,1.31h-6.41Z" transform="translate(-377.12 -93.36)"/><path class="cls-1" d="M454.16,200q0-1.75,1.95-1.75t1.95,1.75a1.7,1.7,0,0,1-.49,1.29,2,2,0,0,1-1.46.46Q454.16,201.77,454.16,200Zm3.73,16.49h-3.57V203.4h3.57Z" transform="translate(-377.12 -93.36)"/><path class="cls-1" d="M465.07,209.37l1.56-2,3.67-4h4l-5.2,5.68,5.52,7.42h-4.12l-3.77-5.31-1.54,1.23v4.08h-3.57V198.27h3.57v8.13l-.19,3Z" transform="translate(-377.12 -93.36)"/><path class="cls-1" d="M482.45,216.73a6.76,6.76,0,0,1-4.95-1.75,6.61,6.61,0,0,1-1.78-4.95,7.27,7.27,0,0,1,1.65-5.09,5.86,5.86,0,0,1,4.55-1.8,5.77,5.77,0,0,1,4.32,1.58,6,6,0,0,1,1.55,4.37v1.73h-8.45a3.44,3.44,0,0,0,.9,2.38,3.17,3.17,0,0,0,2.37.86,9.83,9.83,0,0,0,2.24-.25,11.2,11.2,0,0,0,2.2-.79v2.77a8.39,8.39,0,0,1-2,.7A12.63,12.63,0,0,1,482.45,216.73Z" transform="translate(-377.12 -93.36)"/><path class="cls-1" d="M562.09,212.74a4.43,4.43,0,0,1-1.67,3.66,7.25,7.25,0,0,1-4.65,1.34,10.91,10.91,0,0,1-4.85-1v-3.37a20,20,0,0,0,2.94,1.09,8.69,8.69,0,0,0,2.2.32,3.12,3.12,0,0,0,1.83-.46,1.56,1.56,0,0,0,.64-1.36,1.5,1.5,0,0,0-.28-.9,3.15,3.15,0,0,0-.83-.76,21.25,21.25,0,0,0-2.22-1.16,10.53,10.53,0,0,1-2.36-1.42,5.32,5.32,0,0,1-1.25-1.58,4.51,4.51,0,0,1-.47-2.11,4.43,4.43,0,0,1,1.54-3.57,6.4,6.4,0,0,1,4.26-1.3,10.06,10.06,0,0,1,2.55.32,17.52,17.52,0,0,1,2.54.89l-1.17,2.82a17.15,17.15,0,0,0-2.27-.79,7.3,7.3,0,0,0-1.76-.22,2.34,2.34,0,0,0-1.58.48,1.58,1.58,0,0,0-.55,1.25,1.55,1.55,0,0,0,.22.84,2.45,2.45,0,0,0,.71.69,21.92,21.92,0,0,0,2.3,1.2,9.16,9.16,0,0,1,3.29,2.3A4.49,4.49,0,0,1,562.09,212.74Z" transform="translate(-377.12 -93.36)"/><path class="cls-1" d="M577,217.5h-3.57v-7.65q0-2.84-2.11-2.84a2.4,2.4,0,0,0-2.17,1,6.23,6.23,0,0,0-.67,3.3v6.16h-3.57V199.27h3.57V203q0,.43-.08,2l-.08,1.05h.19a4.14,4.14,0,0,1,3.8-1.92,4.64,4.64,0,0,1,3.5,1.24A4.93,4.93,0,0,1,577,209Z" transform="translate(-377.12 -93.36)"/><path class="cls-1" d="M592.6,210.93a7,7,0,0,1-1.69,5,6.12,6.12,0,0,1-4.7,1.8,6.57,6.57,0,0,1-3.33-.83,5.5,5.5,0,0,1-2.21-2.37,8,8,0,0,1-.77-3.61,7,7,0,0,1,1.68-5,6.15,6.15,0,0,1,4.71-1.78,6.61,6.61,0,0,1,3.33.82,5.48,5.48,0,0,1,2.21,2.36A7.9,7.9,0,0,1,592.6,210.93Z" transform="translate(-377.12 -93.36)"/><path class="cls-1" d="M602.74,217.73a4.35,4.35,0,0,1-3.62-1.68h-.19q.19,1.64.19,1.9v5.31h-3.57V204.4h2.91l.5,1.7h.16a4.13,4.13,0,0,1,3.71-1.95,4.25,4.25,0,0,1,3.63,1.79,8.29,8.29,0,0,1,1.31,5,9.83,9.83,0,0,1-.62,3.64,5.11,5.11,0,0,1-1.75,2.36A4.49,4.49,0,0,1,602.74,217.73Z" transform="translate(-377.12 -93.36)"/></svg>