<?xml version="1.0" encoding="utf-8"?>
<!-- Generator: Adobe Illustrator 21.0.0, SVG Export Plug-In . SVG Version: 6.00 Build 0)  -->
<svg version="1.1" id="Layer_1" xmlns="http://www.w3.org/2000/svg" xmlns:xlink="http://www.w3.org/1999/xlink" x="0px" y="0px"
	 viewBox="0 0 560 288" style="enable-background:new 0 0 560 288;" xml:space="preserve">
<style type="text/css">
	.st0{fill:#99C006;}
	.st1{fill:#C8DA8B;}
	.st2{display:none;}
	.st3{display:inline;fill:#C8DA8B;}
</style>
<g>
	<path class="st0" d="M95.5,128.8v12.1h-5.2v11.8H78.8v-26.1c0-2.9,0.5-5.4,1.5-7.5c1.3-2.7,3.2-4.8,5.8-6.5s5.3-2.5,8.1-2.5l1.2,0
		v12.1c-0.3,0-0.5,0-0.6,0c-1.5,0-2.6,0.5-3.4,1.4c-0.8,1-1.2,2.3-1.2,4.1v1H95.5z"/>
	<path class="st0" d="M116.3,141.2v11.9c-0.9,0.2-1.8,0.2-2.6,0.2c-4.6,0-8.5-1.5-11.6-4.6c-3.1-3-4.6-6.9-4.6-11.4
		c0-4.5,1.6-8.2,4.7-11.3c3.1-3.1,6.9-4.7,11.4-4.7c5,0,8.9,1.5,11.8,4.4c2.9,2.9,4.3,6.9,4.3,11.9v15.1h-11.5v-14.2
		c0-1.6-0.4-2.9-1.2-3.9s-1.9-1.4-3.2-1.4c-1.2,0-2.3,0.4-3.1,1.3s-1.3,1.9-1.3,3.1c0,1.3,0.4,2.3,1.2,3.1c0.8,0.8,1.8,1.2,3.1,1.2
		C114.5,142,115.5,141.7,116.3,141.2z"/>
	<path class="st0" d="M155.7,122.4v12.2c-1.6,0-2.7,0.3-3.3,0.9s-1,1.8-1.2,3.6c-0.5,5.9-2.8,10.1-6.9,12.6
		c-2.2,1.3-5.2,1.9-9.2,1.9h-1.6v-12.2h0.5c1.9,0,3.2-0.4,4-1.2c0.8-0.8,1.2-2.1,1.4-4.1c0.2-3.1,0.5-5.4,0.9-6.6
		c0.4-1.3,1.3-2.5,2.6-3.8c2.3-2.2,5.4-3.3,9.4-3.3H155.7z"/>
	<path class="st0" d="M171,110.6v12.9c2-1.4,3.9-2.1,5.9-2.1c3,0,5.3,1.1,7,3.2c1.7,2.1,2.6,5,2.6,8.7v19.5h-11.5v-16.3
		c0-1.3-0.1-2.2-0.4-2.7s-0.8-0.7-1.6-0.7c-1.3,0-1.9,1-1.9,2.9v16.7h-11.5v-42.1H171z"/>
	<path class="st0" d="M227.7,121.3c4.4,0,8.1,1.6,11.2,4.7c3.1,3.1,4.7,6.9,4.7,11.3c0,4.4-1.6,8.2-4.7,11.3
		c-3.2,3.1-7,4.7-11.4,4.7s-8.3-1.6-11.4-4.7c-3.2-3.1-4.7-6.9-4.7-11.3c0-4.5,1.6-8.3,4.7-11.4C219.1,122.8,223,121.3,227.7,121.3z
		 M227.4,132.7c-1.2,0-2.3,0.4-3.1,1.3c-0.9,0.9-1.3,2-1.3,3.3c0,1.3,0.4,2.4,1.3,3.3c0.9,0.9,1.9,1.4,3.1,1.4
		c1.2,0,2.3-0.5,3.2-1.4c0.9-0.9,1.3-2,1.3-3.3c0-1.3-0.4-2.4-1.3-3.3C229.7,133.1,228.6,132.7,227.4,132.7z"/>
	<path class="st0" d="M275.8,152.7h-11.5v-17.4c0-1.8-0.7-2.7-2.2-2.7c-1.4,0-2.2,0.9-2.2,2.7v17.4h-11.5v-17.1c0-4,1.3-7.4,4-10.1
		c2.7-2.7,5.9-4.1,9.7-4.1c4.4,0,7.9,1.6,10.6,4.8c2.1,2.5,3.1,6,3.1,10.4V152.7z"/>
	<path class="st0" d="M315,128.8v12.1h-5.2v11.8h-11.5v-26.1c0-2.9,0.5-5.4,1.5-7.5c1.3-2.7,3.2-4.8,5.8-6.5s5.3-2.5,8.1-2.5l1.2,0
		v12.1c-0.3,0-0.5,0-0.6,0c-1.5,0-2.6,0.5-3.4,1.4c-0.8,1-1.2,2.3-1.2,4.1v1H315z"/>
	<path class="st0" d="M338.4,141.2v11.9c-0.9,0.2-1.8,0.2-2.6,0.2c-4.6,0-8.5-1.5-11.6-4.6s-4.6-6.9-4.6-11.4
		c0-4.5,1.6-8.2,4.7-11.3c3.1-3.1,6.9-4.7,11.4-4.7c5,0,8.9,1.5,11.8,4.4c2.9,2.9,4.3,6.9,4.3,11.9v15.1h-11.5v-14.2
		c0-1.6-0.4-2.9-1.2-3.9c-0.8-1-1.9-1.4-3.2-1.4c-1.2,0-2.3,0.4-3.1,1.3c-0.9,0.9-1.3,1.9-1.3,3.1c0,1.3,0.4,2.3,1.2,3.1
		c0.8,0.8,1.8,1.2,3.1,1.2C336.6,142,337.5,141.7,338.4,141.2z"/>
	<path class="st0" d="M400.6,152.7h-11.5v-16.6c0-1.3-0.1-2.2-0.4-2.7c-0.3-0.5-0.8-0.7-1.4-0.7c-1.3,0-1.9,1.1-1.9,3.4v16.6h-11.5
		v-16.6c0-1.3-0.1-2.2-0.4-2.7c-0.3-0.5-0.8-0.7-1.5-0.7c-1.3,0-1.9,1.1-1.9,3.4v16.6h-11.5v-18.9c0-3.5,1.2-6.4,3.5-8.8
		s5.1-3.6,8.5-3.6c3.4,0,6.5,1.4,9.2,4.3c3-2.9,6-4.3,9.1-4.3c3.8,0,6.9,1.4,9.3,4.2c1.8,2.2,2.7,5.4,2.7,9.5V152.7z"/>
	<path class="st1" d="M412.7,123.1c1,0,1.9,0.4,2.7,1.1s1.1,1.6,1.1,2.6c0,1.1-0.4,1.9-1.1,2.6c-0.7,0.7-1.6,1-2.8,1
		c-1.1,0-2-0.3-2.8-1c-0.7-0.7-1.1-1.6-1.1-2.6c0-1,0.4-1.9,1.1-2.6S411.6,123.1,412.7,123.1z"/>
	<path class="st0" d="M435.4,110.6v42.1h-11.5v-42.1H435.4z"/>
	<path class="st0" d="M445.7,169.6v-10.2c1.6,0.7,3,1,4.2,1c3.8,0,6.3-2.1,7.4-6.4c-2,1.2-4,1.8-6,1.8c-2.9,0-5.3-1.1-7.2-3.2
		c-1.9-2.2-2.8-4.9-2.8-8.2v-19.6h11.7v16.8c0,1.9,0.8,2.8,2.3,2.8c1.5,0,2.2-1,2.2-3.1v-16.5h11.7v27.8c0,5.2-1.5,9.4-4.4,12.6
		c-3.5,3.8-7.7,5.7-12.6,5.7C450,170.8,447.8,170.4,445.7,169.6z"/>
</g>
<g class="st2">
	<path class="st3" d="M311.5,166.1c0,2.3-0.6,4.1-1.7,5.4c-1.2,1.3-2.8,2-4.8,2c-2.1,0-3.7-0.6-4.9-1.9c-1.2-1.3-1.7-3.1-1.7-5.5
		c0-2.3,0.6-4.1,1.7-5.4c1.2-1.3,2.8-1.9,4.9-1.9c2.1,0,3.7,0.7,4.8,2C311,162,311.5,163.8,311.5,166.1z M300.1,166.1
		c0,1.9,0.4,3.4,1.2,4.4c0.8,1,2,1.5,3.6,1.5c1.6,0,2.8-0.5,3.6-1.5c0.8-1,1.2-2.5,1.2-4.4c0-1.9-0.4-3.4-1.2-4.4s-2-1.5-3.6-1.5
		c-1.6,0-2.8,0.5-3.6,1.5C300.5,162.7,300.1,164.1,300.1,166.1z"/>
	<path class="st3" d="M325.9,173.3H324l-7.8-12h-0.1c0.1,1.4,0.2,2.7,0.2,3.9v8.2h-1.5v-14.3h1.9l7.8,12h0.1c0-0.2,0-0.7-0.1-1.7
		c0-1-0.1-1.6-0.1-2.1v-8.2h1.6V173.3z"/>
	<path class="st3" d="M337.9,173.3h-8v-14.3h8v1.5h-6.3v4.6h5.9v1.5h-5.9v5.3h6.3V173.3z"/>
	<path class="st3" d="M347.9,173.3h-1.7v-14.3h8v1.5h-6.3v5.3h5.9v1.5h-5.9V173.3z"/>
	<path class="st3" d="M365.7,173.3l-1.8-4.6h-5.8l-1.8,4.6h-1.7l5.7-14.4h1.4l5.6,14.4H365.7z M363.4,167.2l-1.7-4.4
		c-0.2-0.6-0.4-1.3-0.7-2.1c-0.1,0.6-0.3,1.3-0.6,2.1l-1.7,4.4H363.4z"/>
	<path class="st3" d="M377.5,169.4c0,1.3-0.5,2.2-1.4,3c-0.9,0.7-2.2,1.1-3.7,1.1c-1.7,0-3-0.2-3.9-0.7v-1.6
		c0.6,0.2,1.2,0.4,1.9,0.6c0.7,0.1,1.4,0.2,2.1,0.2c1.1,0,2-0.2,2.5-0.6c0.6-0.4,0.8-1,0.8-1.8c0-0.5-0.1-0.9-0.3-1.2
		c-0.2-0.3-0.5-0.6-1-0.9c-0.5-0.3-1.2-0.6-2.1-0.9c-1.3-0.5-2.3-1-2.9-1.7c-0.6-0.7-0.9-1.5-0.9-2.6c0-1.1,0.4-2,1.2-2.6
		c0.8-0.7,1.9-1,3.3-1c1.4,0,2.7,0.3,3.9,0.8l-0.5,1.5c-1.2-0.5-2.3-0.7-3.5-0.7c-0.9,0-1.6,0.2-2.1,0.6c-0.5,0.4-0.7,0.9-0.7,1.6
		c0,0.5,0.1,0.9,0.3,1.2c0.2,0.3,0.5,0.6,0.9,0.9c0.4,0.3,1.1,0.6,2,0.9c1.5,0.5,2.5,1.1,3.1,1.7
		C377.2,167.7,377.5,168.5,377.5,169.4z"/>
	<path class="st3" d="M391.3,173.3h-1.7v-6.8h-7.6v6.8h-1.7v-14.3h1.7v6.1h7.6v-6.1h1.7V173.3z"/>
	<path class="st3" d="M395.2,173.3v-14.3h1.7v14.3H395.2z"/>
	<path class="st3" d="M413.3,166.1c0,2.3-0.6,4.1-1.7,5.4c-1.2,1.3-2.8,2-4.8,2c-2.1,0-3.7-0.6-4.9-1.9c-1.2-1.3-1.7-3.1-1.7-5.5
		c0-2.3,0.6-4.1,1.7-5.4c1.2-1.3,2.8-1.9,4.9-1.9c2.1,0,3.7,0.7,4.8,2C412.7,162,413.3,163.8,413.3,166.1z M401.9,166.1
		c0,1.9,0.4,3.4,1.2,4.4c0.8,1,2,1.5,3.6,1.5c1.6,0,2.8-0.5,3.6-1.5c0.8-1,1.2-2.5,1.2-4.4c0-1.9-0.4-3.4-1.2-4.4s-2-1.5-3.6-1.5
		c-1.6,0-2.8,0.5-3.6,1.5C402.3,162.7,401.9,164.1,401.9,166.1z"/>
	<path class="st3" d="M427.7,173.3h-1.9l-7.8-12h-0.1c0.1,1.4,0.2,2.7,0.2,3.9v8.2h-1.5v-14.3h1.9l7.8,12h0.1c0-0.2,0-0.7-0.1-1.7
		c0-1-0.1-1.6-0.1-2.1v-8.2h1.6V173.3z"/>
</g>
<g class="st2">
	<path class="st3" d="M177.7,166.5c0,2.3-0.6,4.1-1.7,5.4c-1.2,1.3-2.8,2-4.8,2c-2.1,0-3.7-0.6-4.9-1.9c-1.2-1.3-1.7-3.1-1.7-5.5
		c0-2.3,0.6-4.1,1.7-5.4c1.2-1.3,2.8-1.9,4.9-1.9c2.1,0,3.7,0.7,4.8,2C177.1,162.4,177.7,164.2,177.7,166.5z M166.2,166.5
		c0,1.9,0.4,3.4,1.2,4.4c0.8,1,2,1.5,3.6,1.5c1.6,0,2.8-0.5,3.6-1.5c0.8-1,1.2-2.5,1.2-4.4c0-1.9-0.4-3.4-1.2-4.4s-2-1.5-3.6-1.5
		c-1.6,0-2.8,0.5-3.6,1.5C166.7,163.1,166.2,164.6,166.2,166.5z"/>
	<path class="st3" d="M191.7,173.7h-1.9l-7.8-12h-0.1c0.1,1.4,0.2,2.7,0.2,3.9v8.2h-1.5v-14.3h1.9l7.8,12h0.1c0-0.2,0-0.7-0.1-1.7
		c0-1-0.1-1.6-0.1-2.1v-8.2h1.6V173.7z"/>
	<path class="st3" d="M202.8,173.7h-8v-14.3h8v1.5h-6.3v4.6h5.9v1.5h-5.9v5.3h6.3V173.7z"/>
	<path class="st3" d="M211.2,159.3h4.1c1.9,0,3.3,0.3,4.1,0.9c0.8,0.6,1.3,1.5,1.3,2.7c0,0.9-0.2,1.6-0.7,2.1
		c-0.5,0.6-1.2,0.9-2.1,1.1v0.1c2.2,0.4,3.3,1.5,3.3,3.4c0,1.3-0.4,2.3-1.3,3c-0.9,0.7-2.1,1.1-3.6,1.1h-5V159.3z M212.9,165.5h2.8
		c1.2,0,2-0.2,2.5-0.6c0.5-0.4,0.8-1,0.8-1.9c0-0.8-0.3-1.4-0.9-1.7c-0.6-0.4-1.5-0.5-2.7-0.5h-2.5V165.5z M212.9,166.9v5.4h3
		c1.2,0,2-0.2,2.6-0.7c0.6-0.4,0.9-1.1,0.9-2.1c0-0.9-0.3-1.5-0.9-2c-0.6-0.4-1.5-0.6-2.7-0.6H212.9z"/>
	<path class="st3" d="M225.9,167.7v6h-1.7v-14.3h3.9c1.8,0,3.1,0.3,3.9,1c0.8,0.7,1.3,1.7,1.3,3c0,1.9-1,3.2-2.9,3.8l3.9,6.4h-2
		l-3.5-6H225.9z M225.9,166.3h2.3c1.2,0,2-0.2,2.6-0.7c0.6-0.5,0.8-1.2,0.8-2.1c0-0.9-0.3-1.6-0.8-2.1c-0.6-0.4-1.5-0.6-2.7-0.6
		h-2.2V166.3z"/>
	<path class="st3" d="M245.7,173.7l-1.8-4.6h-5.8l-1.8,4.6h-1.7l5.7-14.4h1.4l5.6,14.4H245.7z M243.4,167.6l-1.7-4.4
		c-0.2-0.6-0.4-1.3-0.7-2.1c-0.1,0.6-0.3,1.3-0.6,2.1l-1.7,4.4H243.4z"/>
	<path class="st3" d="M260.6,173.7h-1.9l-7.8-12h-0.1c0.1,1.4,0.2,2.7,0.2,3.9v8.2h-1.5v-14.3h1.9l7.8,12h0.1c0-0.2,0-0.7-0.1-1.7
		c0-1-0.1-1.6-0.1-2.1v-8.2h1.6V173.7z"/>
	<path class="st3" d="M276,166.4c0,2.4-0.6,4.2-1.9,5.4c-1.3,1.3-3.1,1.9-5.5,1.9h-4v-14.3h4.4c2.2,0,4,0.6,5.2,1.9
		C275.4,162.4,276,164.2,276,166.4z M274.2,166.4c0-1.9-0.5-3.3-1.4-4.2s-2.3-1.4-4.2-1.4h-2.4v11.5h2c2,0,3.5-0.5,4.5-1.5
		C273.7,169.8,274.2,168.4,274.2,166.4z"/>
</g>
<g>
	<path class="st0" d="M204.6,152.7h-11.3c-0.6,0-1-0.4-1-1v-28.8c0-3.3,2.7-6,6-6h1.3c3.3,0,6,2.7,6,6v28.8
		C205.6,152.3,205.1,152.7,204.6,152.7z"/>
</g>
<path class="st0" d="M415.5,152.7h-5.7c-0.5,0-1-0.4-1-1v-16.2c0-1.6,1.4-3,3-3h1.7c1.7,0,3,1.4,3,3v16.2
	C416.5,152.3,416,152.7,415.5,152.7z"/>
<circle class="st1" cx="199.1" cy="107.5" r="6.8"/>
<g>
	<path class="st1" d="M311.7,166.1c0,2.3-0.6,4-1.7,5.2c-1.1,1.2-2.7,1.8-4.9,1.8c-2.1,0-3.7-0.6-4.9-1.8c-1.1-1.2-1.7-3-1.7-5.3
		c0-2.3,0.6-4,1.7-5.2c1.1-1.2,2.8-1.8,4.9-1.8c2.1,0,3.7,0.6,4.8,1.8C311.2,162,311.7,163.8,311.7,166.1z M301.7,166.1
		c0,1.5,0.3,2.7,0.9,3.5c0.6,0.8,1.5,1.2,2.6,1.2c2.3,0,3.5-1.5,3.5-4.6c0-3.1-1.2-4.6-3.5-4.6c-1.2,0-2,0.4-2.6,1.2
		C302,163.4,301.7,164.5,301.7,166.1z"/>
	<path class="st1" d="M326.8,173h-3.7l-6-10.4H317c0.1,1.8,0.2,3.1,0.2,3.9v6.5h-2.6v-13.7h3.7l6,10.3h0.1c-0.1-1.8-0.1-3.1-0.1-3.8
		v-6.5h2.6V173z"/>
	<path class="st1" d="M338.1,173h-7.9v-13.7h7.9v2.4h-5v3h4.7v2.4h-4.7v3.5h5V173z"/>
	<path class="st1" d="M348.9,173H346v-13.7h7.9v2.4h-5v3.5h4.7v2.4h-4.7V173z"/>
	<path class="st1" d="M365,173l-1-3.3h-5l-1,3.3h-3.1l4.9-13.8h3.6l4.9,13.8H365z M363.3,167.2c-0.9-3-1.4-4.6-1.6-5
		c-0.1-0.4-0.2-0.7-0.2-0.9c-0.2,0.8-0.8,2.8-1.8,6H363.3z"/>
	<path class="st1" d="M378,169.1c0,1.2-0.4,2.2-1.3,2.9c-0.9,0.7-2.1,1.1-3.7,1.1c-1.5,0-2.8-0.3-3.9-0.8v-2.7
		c0.9,0.4,1.7,0.7,2.4,0.9c0.6,0.2,1.2,0.3,1.8,0.3c0.6,0,1.1-0.1,1.5-0.4c0.3-0.2,0.5-0.6,0.5-1.1c0-0.3-0.1-0.5-0.2-0.7
		c-0.2-0.2-0.4-0.4-0.7-0.6c-0.3-0.2-0.9-0.5-1.8-0.9c-0.8-0.4-1.5-0.8-1.9-1.1c-0.4-0.4-0.8-0.8-1-1.3c-0.3-0.5-0.4-1-0.4-1.7
		c0-1.2,0.4-2.2,1.2-2.9c0.8-0.7,2-1,3.4-1c0.7,0,1.4,0.1,2,0.3s1.3,0.4,2,0.7l-0.9,2.3c-0.7-0.3-1.3-0.5-1.8-0.6
		c-0.5-0.1-1-0.2-1.4-0.2c-0.6,0-1,0.1-1.3,0.4c-0.3,0.3-0.4,0.6-0.4,1c0,0.3,0.1,0.5,0.2,0.7c0.1,0.2,0.3,0.4,0.6,0.6
		c0.3,0.2,0.9,0.5,1.8,1c1.3,0.6,2.2,1.2,2.6,1.8C377.7,167.5,378,168.3,378,169.1z"/>
	<path class="st1" d="M391.7,173h-2.9V167h-5.4v5.9h-2.9v-13.7h2.9v5.4h5.4v-5.4h2.9V173z"/>
	<path class="st1" d="M395.2,173v-13.7h2.9V173H395.2z"/>
	<path class="st1" d="M414,166.1c0,2.3-0.6,4-1.7,5.2c-1.1,1.2-2.7,1.8-4.9,1.8c-2.1,0-3.7-0.6-4.9-1.8c-1.1-1.2-1.7-3-1.7-5.3
		c0-2.3,0.6-4,1.7-5.2c1.1-1.2,2.8-1.8,4.9-1.8s3.7,0.6,4.8,1.8C413.5,162,414,163.8,414,166.1z M404,166.1c0,1.5,0.3,2.7,0.9,3.5
		c0.6,0.8,1.5,1.2,2.6,1.2c2.3,0,3.5-1.5,3.5-4.6c0-3.1-1.2-4.6-3.5-4.6c-1.2,0-2,0.4-2.6,1.2C404.3,163.4,404,164.5,404,166.1z"/>
	<path class="st1" d="M429.1,173h-3.7l-6-10.4h-0.1c0.1,1.8,0.2,3.1,0.2,3.9v6.5h-2.6v-13.7h3.7l6,10.3h0.1
		c-0.1-1.8-0.1-3.1-0.1-3.8v-6.5h2.6V173z"/>
</g>
<g>
	<path class="st1" d="M177.5,166.5c0,2.3-0.6,4-1.7,5.2c-1.1,1.2-2.7,1.8-4.9,1.8c-2.1,0-3.7-0.6-4.9-1.8c-1.1-1.2-1.7-3-1.7-5.3
		c0-2.3,0.6-4,1.7-5.2c1.1-1.2,2.8-1.8,4.9-1.8c2.1,0,3.7,0.6,4.8,1.8C176.9,162.5,177.5,164.2,177.5,166.5z M167.5,166.5
		c0,1.5,0.3,2.7,0.9,3.5c0.6,0.8,1.5,1.2,2.6,1.2c2.3,0,3.5-1.5,3.5-4.6c0-3.1-1.2-4.6-3.5-4.6c-1.2,0-2,0.4-2.6,1.2
		C167.7,163.8,167.5,165,167.5,166.5z"/>
	<path class="st1" d="M192.1,173.4h-3.7l-6-10.4h-0.1c0.1,1.8,0.2,3.1,0.2,3.9v6.5h-2.6v-13.7h3.7l6,10.3h0.1
		c-0.1-1.8-0.1-3.1-0.1-3.8v-6.5h2.6V173.4z"/>
	<path class="st1" d="M202.7,173.4h-7.9v-13.7h7.9v2.4h-5v3h4.7v2.4h-4.7v3.5h5V173.4z"/>
	<path class="st1" d="M210.6,159.6h4.3c2,0,3.4,0.3,4.2,0.8s1.3,1.4,1.3,2.6c0,0.8-0.2,1.5-0.6,2c-0.4,0.5-0.9,0.8-1.5,0.9v0.1
		c0.9,0.2,1.5,0.6,1.9,1.1c0.4,0.5,0.6,1.2,0.6,2.1c0,1.3-0.5,2.2-1.4,2.9c-0.9,0.7-2.1,1.1-3.7,1.1h-5.1V159.6z M213.5,165.1h1.7
		c0.8,0,1.4-0.1,1.7-0.4c0.4-0.2,0.5-0.7,0.5-1.2c0-0.5-0.2-0.9-0.6-1.1c-0.4-0.2-1-0.3-1.8-0.3h-1.5V165.1z M213.5,167.4v3.6h1.9
		c0.8,0,1.4-0.2,1.8-0.5c0.4-0.3,0.6-0.8,0.6-1.4c0-1.1-0.8-1.7-2.4-1.7H213.5z"/>
	<path class="st1" d="M226.5,168.1v5.3h-2.9v-13.7h4c1.9,0,3.2,0.3,4.1,1s1.3,1.7,1.3,3.1c0,0.8-0.2,1.5-0.7,2.2
		c-0.4,0.6-1.1,1.1-1.9,1.5c2.1,3.1,3.4,5.1,4,6h-3.2l-3.3-5.3H226.5z M226.5,165.7h0.9c0.9,0,1.6-0.2,2-0.5
		c0.4-0.3,0.7-0.8,0.7-1.4c0-0.7-0.2-1.1-0.7-1.4s-1.1-0.4-2.1-0.4h-0.9V165.7z"/>
	<path class="st1" d="M244.7,173.4l-1-3.3h-5l-1,3.3h-3.1l4.9-13.8h3.6l4.9,13.8H244.7z M243,167.7c-0.9-3-1.4-4.6-1.6-5
		c-0.1-0.4-0.2-0.7-0.2-0.9c-0.2,0.8-0.8,2.8-1.8,6H243z"/>
	<path class="st1" d="M261.7,173.4H258l-6-10.4H252c0.1,1.8,0.2,3.1,0.2,3.9v6.5h-2.6v-13.7h3.7l6,10.3h0.1
		c-0.1-1.8-0.1-3.1-0.1-3.8v-6.5h2.6V173.4z"/>
	<path class="st1" d="M276.6,166.4c0,2.3-0.6,4-1.9,5.2c-1.3,1.2-3.2,1.8-5.6,1.8h-3.9v-13.7h4.3c2.2,0,4,0.6,5.2,1.8
		C276,162.6,276.6,164.3,276.6,166.4z M273.6,166.5c0-3-1.3-4.4-3.9-4.4h-1.6v9h1.3C272.2,171,273.6,169.5,273.6,166.5z"/>
</g>
</svg>
