<svg id="Layer_1" data-name="Layer 1" xmlns="http://www.w3.org/2000/svg" viewBox="0 0 120.78 117.79"><defs><style>.cls-1,.cls-2{fill:#191717;}.cls-1{fill-rule:evenodd;}</style></defs><title>GitHub-Mark</title><path class="cls-1" d="M265.49,190.1A60.39,60.39,0,0,0,246.4,307.79c3,.55,4.12-1.31,4.12-2.91,0-1.44-.05-6.2-.08-11.24-16.8,3.65-20.35-7.13-20.35-7.13-2.74-7-6.7-8.83-6.7-8.83-5.48-3.75.41-3.67.41-3.67,6.07.42,9.26,6.22,9.26,6.22,5.39,9.23,14.13,6.56,17.57,5,.55-3.9,2.11-6.57,3.84-8.08-13.42-1.52-27.52-6.7-27.52-29.84a23.35,23.35,0,0,1,6.23-16.21c-.63-1.52-2.7-7.66.58-16,0,0,5.07-1.62,16.61,6.19a57.32,57.32,0,0,1,30.24,0c11.53-7.81,16.59-6.19,16.59-6.19,3.29,8.32,1.22,14.46.6,16A23.34,23.34,0,0,1,304,247.33c0,23.19-14.12,28.3-27.57,29.8,2.16,1.87,4.09,5.54,4.09,11.18,0,8.08-.07,14.58-.07,16.57,0,1.61,1.09,3.49,4.15,2.9A60.4,60.4,0,0,0,265.49,190.1Z" transform="translate(-205.1 -190.1)"/><path class="cls-2" d="M228,276.8c-.13.3-.6.39-1,.18s-.69-.6-.55-.9.61-.4,1-.19.69.61.54.91Zm-.74-.55" transform="translate(-205.1 -190.1)"/><path class="cls-2" d="M230.42,279.53c-.29.26-.85.14-1.24-.28A.93.93,0,0,1,229,278c.29-.26.84-.14,1.24.28s.47,1,.17,1.26Zm-.58-.62" transform="translate(-205.1 -190.1)"/><path class="cls-2" d="M232.8,283c-.37.25-1,0-1.35-.53s-.37-1.18,0-1.43,1,0,1.35.5.37,1.19,0,1.46Zm0,0" transform="translate(-205.1 -190.1)"/><path class="cls-2" d="M236.06,286.37c-.33.36-1,.26-1.55-.24a1,1,0,1,1,1.22-1.31c.52.49.68,1.18.33,1.55Zm0,0" transform="translate(-205.1 -190.1)"/><path class="cls-2" d="M240.56,288.32c-.15.47-.83.68-1.51.48s-1.13-.76-1-1.24.82-.7,1.51-.48,1.13.76,1,1.24Zm0,0" transform="translate(-205.1 -190.1)"/><path class="cls-2" d="M245.5,288.68c0,.5-.56.91-1.28.92s-1.31-.39-1.31-.88.56-.91,1.29-.92,1.3.38,1.3.88Zm0,0" transform="translate(-205.1 -190.1)"/><path class="cls-2" d="M250.1,287.9c.09.48-.41,1-1.13,1.11s-1.34-.17-1.43-.65.42-1,1.12-1.13,1.35.17,1.44.67Zm0,0" transform="translate(-205.1 -190.1)"/></svg>