<svg id="shield" data-name="shield logo" xmlns="http://www.w3.org/2000/svg" viewBox="0 0 227.82 138.92"><defs><style>.cls-1{fill:#1a1a1a;}</style></defs><title>exportLogo</title><path class="cls-1" d="M205.19,157.79A12.33,12.33,0,0,1,200.54,168q-4.65,3.72-12.94,3.72a30.39,30.39,0,0,1-13.51-2.87v-9.4a55.78,55.78,0,0,0,8.18,3,24.17,24.17,0,0,0,6.12.88,8.7,8.7,0,0,0,5.11-1.27,4.35,4.35,0,0,0,1.78-3.79,4.18,4.18,0,0,0-.78-2.5,8.77,8.77,0,0,0-2.3-2.11,59.36,59.36,0,0,0-6.19-3.23,29.29,29.29,0,0,1-6.56-4,14.8,14.8,0,0,1-3.49-4.41,12.57,12.57,0,0,1-1.31-5.87,12.33,12.33,0,0,1,4.29-10q4.29-3.62,11.86-3.62a28,28,0,0,1,7.1.88A48.93,48.93,0,0,1,205,126l-3.26,7.87a47.75,47.75,0,0,0-6.32-2.19,20.34,20.34,0,0,0-4.91-.62,6.51,6.51,0,0,0-4.41,1.34,4.41,4.41,0,0,0-1.53,3.49,4.32,4.32,0,0,0,.62,2.33,6.8,6.8,0,0,0,2,1.93,61,61,0,0,0,6.41,3.35q6.69,3.2,9.17,6.41A12.52,12.52,0,0,1,205.19,157.79Z" transform="translate(-174.09 -67.28)"/><path class="cls-1" d="M252.94,171H242.86V150.45H224V171H213.84V123.32H224V142h18.9v-18.7h10.09Z" transform="translate(-174.09 -67.28)"/><path class="cls-1" d="M265,171V123.32h10.12V171Z" transform="translate(-174.09 -67.28)"/><path class="cls-1" d="M314.6,171H287.12V123.32H314.6v8.29H297.24v10.48h16.16v8.29H297.24v12.3H314.6Z" transform="translate(-174.09 -67.28)"/><path class="cls-1" d="M324.55,171V123.32h10.12v39.36H354V171Z" transform="translate(-174.09 -67.28)"/><path class="cls-1" d="M401.91,146.72q0,11.78-6.71,18T375.83,171H362.32V123.32h15q11.68,0,18.15,6.17T401.91,146.72ZM391.4,147q0-15.37-13.58-15.37h-5.38v31.07h4.34Q391.4,162.68,391.4,147Z" transform="translate(-174.09 -67.28)"/><path class="cls-1" d="M185.76,199.63v-9.47a3.82,3.82,0,0,0-.81-2.67,3.32,3.32,0,0,0-2.55-.88,4.18,4.18,0,0,0-3.37,1.25A6.36,6.36,0,0,0,178,192v7.65h-2.22V178.85H178v6.29a13.68,13.68,0,0,1-.11,1.88H178a4.52,4.52,0,0,1,1.86-1.66,6,6,0,0,1,2.76-.61,5.65,5.65,0,0,1,4,1.27,5.37,5.37,0,0,1,1.34,4.05v9.55Z" transform="translate(-174.09 -67.28)"/><path class="cls-1" d="M192.35,181a1.47,1.47,0,0,1,.37-1.12,1.38,1.38,0,0,1,1.86,0A1.45,1.45,0,0,1,195,181a1.47,1.47,0,0,1-.39,1.12,1.3,1.3,0,0,1-.92.37,1.28,1.28,0,0,1-.93-.37A1.5,1.5,0,0,1,192.35,181Zm2.4,18.6h-2.22V185h2.22Z" transform="translate(-174.09 -67.28)"/><path class="cls-1" d="M211.43,185v1.4l-2.71.32a4.76,4.76,0,0,1,1,2.92,4.33,4.33,0,0,1-1.47,3.43,5.92,5.92,0,0,1-4,1.28,6.71,6.71,0,0,1-1.23-.11,2.18,2.18,0,0,0-1.42,1.88,1,1,0,0,0,.49.89,3.61,3.61,0,0,0,1.7.29h2.59a5.8,5.8,0,0,1,3.65,1,3.48,3.48,0,0,1,1.28,2.91,4.15,4.15,0,0,1-1.95,3.71,10.43,10.43,0,0,1-5.69,1.28,7.77,7.77,0,0,1-4.43-1.07,3.45,3.45,0,0,1-1.56-3,3.39,3.39,0,0,1,.85-2.31,4.35,4.35,0,0,1,2.4-1.32,2.31,2.31,0,0,1-.94-.79,2.08,2.08,0,0,1-.38-1.24,2.36,2.36,0,0,1,.43-1.4,4.49,4.49,0,0,1,1.35-1.16,4,4,0,0,1-1.85-1.59,4.67,4.67,0,0,1-.71-2.56,4.74,4.74,0,0,1,1.44-3.71,5.89,5.89,0,0,1,4.09-1.3,7.41,7.41,0,0,1,2.07.27Zm-11.67,17.09a2,2,0,0,0,1,1.8,5.53,5.53,0,0,0,2.87.61,8,8,0,0,0,4.13-.83,2.56,2.56,0,0,0,1.34-2.26,1.79,1.79,0,0,0-.73-1.65,5.7,5.7,0,0,0-2.76-.46h-2.66a3.49,3.49,0,0,0-2.35.72A2.57,2.57,0,0,0,199.76,202.09Zm1.2-12.4a3,3,0,0,0,.87,2.32,3.46,3.46,0,0,0,2.42.79q3.24,0,3.24-3.15t-3.28-3.3a3.25,3.25,0,0,0-2.4.84A3.39,3.39,0,0,0,201,189.68Z" transform="translate(-174.09 -67.28)"/><path class="cls-1" d="M224.45,199.63v-9.47a3.82,3.82,0,0,0-.81-2.67,3.32,3.32,0,0,0-2.55-.88,4.18,4.18,0,0,0-3.37,1.25,6.36,6.36,0,0,0-1.06,4.11v7.65h-2.22V178.85h2.22v6.29a13.68,13.68,0,0,1-.11,1.88h.13a4.52,4.52,0,0,1,1.86-1.66,6,6,0,0,1,2.76-.61,5.65,5.65,0,0,1,4,1.27,5.37,5.37,0,0,1,1.34,4.05v9.55Z" transform="translate(-174.09 -67.28)"/><path class="cls-1" d="M230,193.32v-2h6.56v2Z" transform="translate(-174.09 -67.28)"/><path class="cls-1" d="M244.74,198.07a7.15,7.15,0,0,0,1.13-.09,7.26,7.26,0,0,0,.87-.18v1.7a4,4,0,0,1-1.06.29,7.9,7.9,0,0,1-1.26.11q-4.25,0-4.25-4.47v-8.71h-2.1v-1.07l2.1-.92.94-3.12h1.28V185h4.25v1.72h-4.25v8.61a3,3,0,0,0,.63,2A2.18,2.18,0,0,0,244.74,198.07Z" transform="translate(-174.09 -67.28)"/><path class="cls-1" d="M255.85,199.9a6.72,6.72,0,0,1-5.12-2,7.65,7.65,0,0,1-1.88-5.49,8.48,8.48,0,0,1,1.74-5.62,5.79,5.79,0,0,1,4.68-2.08,5.52,5.52,0,0,1,4.35,1.81,6.93,6.93,0,0,1,1.6,4.77v1.4H251.15a5.8,5.8,0,0,0,1.3,3.91,4.51,4.51,0,0,0,3.48,1.33,11.78,11.78,0,0,0,4.67-1v2a11.8,11.8,0,0,1-2.22.73A12.53,12.53,0,0,1,255.85,199.9Zm-.6-13.31a3.62,3.62,0,0,0-2.81,1.15,5.29,5.29,0,0,0-1.24,3.18h7.65a4.88,4.88,0,0,0-.93-3.21A3.29,3.29,0,0,0,255.25,186.59Z" transform="translate(-174.09 -67.28)"/><path class="cls-1" d="M270.86,199.9a6.24,6.24,0,0,1-4.92-2,8,8,0,0,1-1.74-5.53,8.29,8.29,0,0,1,1.77-5.67,6.37,6.37,0,0,1,5-2,10,10,0,0,1,2.11.23,6.93,6.93,0,0,1,1.66.53l-.68,1.88a10.58,10.58,0,0,0-1.6-.49,7.16,7.16,0,0,0-1.54-.19q-4.46,0-4.46,5.69a6.77,6.77,0,0,0,1.09,4.14A3.79,3.79,0,0,0,270.8,198a9.85,9.85,0,0,0,3.75-.79v2A8,8,0,0,1,270.86,199.9Z" transform="translate(-174.09 -67.28)"/><path class="cls-1" d="M288,199.63v-9.47a3.82,3.82,0,0,0-.81-2.67,3.32,3.32,0,0,0-2.55-.88,4.18,4.18,0,0,0-3.37,1.25,6.35,6.35,0,0,0-1.06,4.11v7.65H278V178.85h2.22v6.29a13.69,13.69,0,0,1-.11,1.88h.13a4.53,4.53,0,0,1,1.86-1.66,6.05,6.05,0,0,1,2.76-.61,5.65,5.65,0,0,1,4,1.27,5.37,5.37,0,0,1,1.34,4.05v9.55Z" transform="translate(-174.09 -67.28)"/><path class="cls-1" d="M311.36,195.64a3.67,3.67,0,0,1-1.52,3.15,7.16,7.16,0,0,1-4.27,1.11A9.29,9.29,0,0,1,301,199v-2.06a11,11,0,0,0,2.26.84,9.43,9.43,0,0,0,2.33.31,5.28,5.28,0,0,0,2.67-.55,1.91,1.91,0,0,0,.19-3.15,11.68,11.68,0,0,0-2.89-1.44,15.68,15.68,0,0,1-2.9-1.33,4,4,0,0,1-1.28-1.29,3.36,3.36,0,0,1-.42-1.72,3.28,3.28,0,0,1,1.46-2.82,6.78,6.78,0,0,1,4-1,11.67,11.67,0,0,1,4.62,1l-.79,1.8a10.62,10.62,0,0,0-4-.91,4.59,4.59,0,0,0-2.38.49,1.53,1.53,0,0,0-.8,1.36,1.66,1.66,0,0,0,.3,1,3,3,0,0,0,1,.79,21.35,21.35,0,0,0,2.56,1.08,9.58,9.58,0,0,1,3.52,1.91A3.36,3.36,0,0,1,311.36,195.64Z" transform="translate(-174.09 -67.28)"/><path class="cls-1" d="M321.14,199.9a6.72,6.72,0,0,1-5.12-2,7.65,7.65,0,0,1-1.88-5.49,8.48,8.48,0,0,1,1.74-5.62,5.79,5.79,0,0,1,4.68-2.08,5.52,5.52,0,0,1,4.35,1.81,6.93,6.93,0,0,1,1.6,4.77v1.4H316.44a5.8,5.8,0,0,0,1.3,3.91,4.51,4.51,0,0,0,3.48,1.33,11.78,11.78,0,0,0,4.67-1v2a11.8,11.8,0,0,1-2.22.73A12.53,12.53,0,0,1,321.14,199.9Zm-.6-13.31a3.62,3.62,0,0,0-2.81,1.15,5.29,5.29,0,0,0-1.24,3.18h7.65a4.88,4.88,0,0,0-.93-3.21A3.29,3.29,0,0,0,320.54,186.59Z" transform="translate(-174.09 -67.28)"/><path class="cls-1" d="M336.15,199.9a6.24,6.24,0,0,1-4.92-2,8,8,0,0,1-1.74-5.53,8.29,8.29,0,0,1,1.77-5.67,6.37,6.37,0,0,1,5-2,10,10,0,0,1,2.11.23,6.93,6.93,0,0,1,1.66.53l-.68,1.88a10.58,10.58,0,0,0-1.6-.49,7.16,7.16,0,0,0-1.54-.19q-4.46,0-4.46,5.69a6.77,6.77,0,0,0,1.09,4.14A3.79,3.79,0,0,0,336.1,198a9.85,9.85,0,0,0,3.75-.79v2A8,8,0,0,1,336.15,199.9Z" transform="translate(-174.09 -67.28)"/><path class="cls-1" d="M345.4,185v9.49a3.82,3.82,0,0,0,.81,2.67,3.32,3.32,0,0,0,2.55.88,4.16,4.16,0,0,0,3.36-1.25,6.34,6.34,0,0,0,1.06-4.1V185h2.22v14.63h-1.83l-.32-2h-.12a4.42,4.42,0,0,1-1.89,1.66,6.36,6.36,0,0,1-2.76.57,5.59,5.59,0,0,1-4-1.27,5.4,5.4,0,0,1-1.33-4.06V185Z" transform="translate(-174.09 -67.28)"/><path class="cls-1" d="M366.78,184.73a8.7,8.7,0,0,1,1.75.16l-.31,2.06a7.53,7.53,0,0,0-1.6-.2,3.9,3.9,0,0,0-3,1.44,5.26,5.26,0,0,0-1.26,3.59v7.85h-2.22V185h1.83l.25,2.71h.11a6.44,6.44,0,0,1,2-2.2A4.42,4.42,0,0,1,366.78,184.73Z" transform="translate(-174.09 -67.28)"/><path class="cls-1" d="M371.08,181a1.47,1.47,0,0,1,.37-1.12,1.38,1.38,0,0,1,1.86,0,1.44,1.44,0,0,1,.39,1.11,1.47,1.47,0,0,1-.39,1.12,1.3,1.3,0,0,1-.92.37,1.28,1.28,0,0,1-.93-.37A1.5,1.5,0,0,1,371.08,181Zm2.4,18.6h-2.22V185h2.22Z" transform="translate(-174.09 -67.28)"/><path class="cls-1" d="M382.91,198.07A7.15,7.15,0,0,0,384,198a7.26,7.26,0,0,0,.87-.18v1.7a4,4,0,0,1-1.06.29,7.9,7.9,0,0,1-1.26.11q-4.25,0-4.25-4.47v-8.71h-2.1v-1.07l2.1-.92.94-3.12h1.28V185h4.25v1.72h-4.25v8.61a3,3,0,0,0,.63,2A2.18,2.18,0,0,0,382.91,198.07Z" transform="translate(-174.09 -67.28)"/><path class="cls-1" d="M385.51,185h2.38l3.21,8.34a31.7,31.7,0,0,1,1.31,4.13h.11q.17-.68.73-2.33T396.86,185h2.38L393,201.66a8.31,8.31,0,0,1-2.18,3.5,4.64,4.64,0,0,1-3.06,1,9,9,0,0,1-2-.23V204.2a7.75,7.75,0,0,0,1.64.16q2.28,0,3.26-2.56l.81-2.08Z" transform="translate(-174.09 -67.28)"/><path class="cls-1" d="M269.51,90.72c-.43.16-.59.17-.66.25-1.78,2.12-3.62,4.21-3,7.33.52,2.48,1.21,4.86,3.34,6.49s4.24,2,6.47.88c4.63-2.39,8.74-5.49,10.61-10.58,1.44-3.9,2.58-7.92,3.62-11.95a35.74,35.74,0,0,0,.5-5.57,9,9,0,0,1,.43-1.48A6.53,6.53,0,0,1,292.29,80a20.79,20.79,0,0,1-.81,7.59c-.75,2.62-1.57,5.22-2.49,7.78a18.51,18.51,0,0,1-7.78,9.37c-.93.61-1.81,1.3-2.74,1.92a8.76,8.76,0,0,1-12.69-2.86c-2.41-4.22-2.8-8.55.24-12.67,2-2.76,4.25-5.41,6.46-8,.79-.93,1.83-1.7,3.2-1a3.17,3.17,0,0,1,1.67,3.82c-.68,2-1.68,4-2.5,6a10.42,10.42,0,0,0-.71,2.33,1.29,1.29,0,0,0,.51,1.11c.31.14.83-.14,1.23-.29.13,0,.24-.22.32-.37,1.86-3.4,3.48-6.87,3-10.91-.19-1.45-.46-2.87-1.82-3.76-1.75-1.15-3.64-1-5.34.72s-2.83,3.39-4.46,4.84c-4.47,4-5.67,9-5.56,14.74.08,4.3,2.14,7.26,5.5,9.52a8.87,8.87,0,0,0,6.26,1.16,18.92,18.92,0,0,0,11.32-5.47,33.94,33.94,0,0,0,8.73-16.69,3.69,3.69,0,0,1,1.43-2.6,6.49,6.49,0,0,1,.31,1.54,27.5,27.5,0,0,1-9.64,19.69,23.11,23.11,0,0,1-11,5.61,15,15,0,0,0-1.51.43,5.91,5.91,0,0,1-4.21-.39,26.69,26.69,0,0,1-3.59-1.59,12.05,12.05,0,0,1-5.06-7.49c-1.19-4.86-.47-9.64,1.2-14.3a3.44,3.44,0,0,1,.56-1c2.38-2.86,4.38-6.06,7.35-8.39A17.59,17.59,0,0,1,273.06,78c3.59-1.64,7,.31,7.74,4.21.8,4.32-.49,8.26-2.16,12.1a6.08,6.08,0,0,1-3.33,3.08,1.8,1.8,0,0,1-2.7-1.23,8.75,8.75,0,0,1,0-5,1.15,1.15,0,0,1,.44-.62c1.7-1.11,1.69-3,2.16-4.68a1,1,0,0,0-.95-1.35c-.39,0-.89.53-1.17.93A22.6,22.6,0,0,0,271.63,88a5.68,5.68,0,0,0-.58,1.64c-.33,2.07-.52,4.16-.9,6.22a3.8,3.8,0,0,0,1.51,4.16A3.63,3.63,0,0,0,276,100a15.61,15.61,0,0,0,7.31-11.8,25.33,25.33,0,0,0,0-6.45,9.21,9.21,0,0,0-4.58-6.57c-1.61-1-3.35-.6-5.06-.16-2.93.77-4.94,2.9-7.13,4.75-.9.76-1.69,1.56-1.46,2.92,0,.2-.31.5-.53.7a21.77,21.77,0,0,0-2.64,2.42c-4.64,6-5,12.77-3,19.81a20.18,20.18,0,0,0,1.2,2.69,15.13,15.13,0,0,1,.69,1.74,2.23,2.23,0,0,1-.09.83c-.29-.07-.68,0-.87-.22a5.59,5.59,0,0,1-1.26-1.49c-2.56-5.19-3.59-10.64-2.23-16.32.81-3.4,2.75-6.36,4.51-9.37,2.77-4.76,7.09-7.72,11.73-10.27,2.3-1.26,4.85-.86,7.15.15a7.26,7.26,0,0,1,2.46,2.31c2.46,3.16,4.08,6.62,3.71,10.79a22.47,22.47,0,0,1-4.22,11.4,12.66,12.66,0,0,1-5.78,4.73c-5,1.87-7.91-2.31-7.82-6a7.9,7.9,0,0,1,1.15-4.52A4.82,4.82,0,0,0,269.51,90.72Z" transform="translate(-174.09 -67.28)"/><path class="cls-1" d="M263.94,74.22a6.57,6.57,0,0,1-1.35,1.5,11.38,11.38,0,0,0-3.75,4.06A43.13,43.13,0,0,0,253.7,91a17.66,17.66,0,0,0-.65,6.81,2.42,2.42,0,0,1-.68,2.45,25,25,0,0,1-.93-3.41c-.75-6.05.94-11.48,4.3-16.48,1.23-1.83,2.36-3.73,4.26-5a20.7,20.7,0,0,1,2.5-1.35,4.39,4.39,0,0,1,1.19-.19Z" transform="translate(-174.09 -67.28)"/><path class="cls-1" d="M287.45,80.5a16.41,16.41,0,0,1-.81-2.24,12.72,12.72,0,0,0-5.14-7.76c-1.62-1.21-3.49-1.18-5.38-1.06-.78.05-1.57.15-2.35.14-.27,0-.53-.27-.79-.41.15-.23.26-.54.47-.67,2.46-1.45,6.28-1.88,9,.21a14.74,14.74,0,0,1,5.63,10.22,6.36,6.36,0,0,1-.15,1.49Z" transform="translate(-174.09 -67.28)"/><path class="cls-1" d="M262,113.32l.14-.72a5.18,5.18,0,0,1,1,.3c.79.43,1.58.87,2.33,1.37a7.6,7.6,0,0,1,1,1,3.87,3.87,0,0,1-1.14.55C263.94,116,262.75,115.12,262,113.32Z" transform="translate(-174.09 -67.28)"/><path class="cls-1" d="M267.41,70.05c1-.2,1.71-.37,2.41-.45.23,0,.49.21.74.33-.14.27-.2.67-.42.8-1.24.71-2.51,1.36-3.79,2-.16.08-.55,0-.6,0s-.23-.66-.1-.81C266.25,71.19,266.91,70.56,267.41,70.05Z" transform="translate(-174.09 -67.28)"/></svg>
